<?xml version="1.0" encoding="utf-8"?>
<!-- Generator: Adobe Illustrator 21.1.0, SVG Export Plug-In . SVG Version: 6.00 Build 0)  -->
<svg version="1.0" id="Layer_1" xmlns="http://www.w3.org/2000/svg" xmlns:xlink="http://www.w3.org/1999/xlink" x="0px" y="0px"
	 width="1920px" height="767px" viewBox="0 0 1920 767" enable-background="new 0 0 1920 767" xml:space="preserve">
<linearGradient id="SVGID_1_" gradientUnits="userSpaceOnUse" x1="10.4875" y1="8.9033" x2="1906.4875" y2="756.9033">
	<stop  offset="0" style="stop-color:#00A2D3"/>
	<stop  offset="1" style="stop-color:#00CABD"/>
</linearGradient>
<rect fill="url(#SVGID_1_)" width="1920" height="767"/>
<g opacity="0.4">
	<path d="M1194,605.8c8.6,0,15.7-0.2,22.8,0.1c1.8,0.1,3.6,1.7,5.4,2.6c-1.8,1-3.6,2.7-5.4,2.8c-5.6,0.4-11.3,0.1-17,0.1
		c-1.8,0-3.5,0.2-6.6,0.4c2,2.2,3,3.6,4.2,4.8c7.5,7.6,15.1,15,22.6,22.7c1.1,1.2,2.5,3.6,2,4.6c-2,3.9-4.4,1.5-6.3-0.4
		c-7.4-7.2-14.6-14.6-22-21.9c-1.2-1.2-2.6-2.4-3.9-3.6c-0.4,0.1-0.9,0.3-1.3,0.4c0,5.4,0,10.8,0,16.2c0,2.3,0.3,4.7-0.1,7
		c-0.3,1.5-1.6,2.9-2.4,4.3c-0.8-1.4-2.3-2.8-2.3-4.2c-0.2-6.3,0-12.7,0-19c0-1.6,0-3.3,0-6.2c-2.5,1.6-4.1,2.4-5.5,3.6
		c-21.4,16.5-45.5,25.2-72.7,25.2c-96.8-0.1-193.6-0.2-290.5,0c-28.5,0.1-53.7-8.5-75.6-26.7c-0.6-0.5-1.3-1-2-1.4
		c-0.2-0.1-0.6,0-2.1,0c0,3.7,0,7.4,0,11.1c0,3.3,0.3,6.7-0.1,10c-0.3,2.3-1.7,6.3-2.6,6.3c-4,0-2.8-3.6-2.9-6
		c-0.2-4.5,0-9-0.1-13.5c0-1.6-0.2-3.2-0.4-6.1c-2.2,1.8-3.6,2.8-4.8,4c-6.7,6.7-13.4,13.5-20.2,20.1c-1.3,1.2-3.6,1.3-5.5,1.9
		c0.4-1.9,0.1-4.4,1.3-5.7c6.8-7.3,13.9-14.3,21-21.4c1.5-1.5,2.9-3.1,5.3-5.5c-2.7-0.4-4.4-0.8-6-0.9c-5.5-0.1-11,0.2-16.5-0.2
		c-1.9-0.1-3.8-1.7-5.7-2.5c2-1,3.9-2.8,5.9-2.9c6.8-0.4,13.6-0.1,21.7-0.1c-1.7-2.4-2.7-3.8-3.7-5.1c-16-20.8-24.1-44.2-24.1-70.5
		c0-97.5,0.2-195-0.1-292.5c-0.1-28.3,9.3-52.8,26.4-74.8c0.9-1.1,1.7-2.3,3.5-4.7c-5.4,0-9.6,0-13.8,0c-4,0-8,0.2-12-0.2
		c-1.4-0.1-2.5-2-3.8-3.1c1.3-0.8,2.5-2.2,3.8-2.3c5.2-0.3,10.3-0.1,15.5-0.2c1.8,0,3.5-0.2,6.7-0.4c-1.9-2.2-2.9-3.6-4-4.8
		c-6.5-6.6-13.3-13.1-19.6-20c-1.2-1.3-1.1-3.9-1.6-5.8c1.8,0.7,4,0.9,5.2,2.1c8,7.7,15.8,15.6,23.7,23.5c0.6-0.2,1.2-0.3,1.8-0.5
		c0-3.7,0-7.3,0-11c0-3.5-0.2-7,0.2-10.5c0.2-1.4,1.7-2.7,2.6-4c1,1.3,2.7,2.6,2.8,4c0.3,6.3,0.2,12.7,0.2,19c0,1.8,0,3.6,0,6.8
		c2.4-1.6,3.8-2.5,5.1-3.5c20.5-16.6,43.9-25.6,70.4-25.6c98.7,0,197.3,0.1,296,0c27.3,0,51.3,8.6,72.6,25.4c1,0.8,2,1.4,4.4,3.1
		c0-5.1,0-9,0-12.9c0-4-0.2-8,0.1-12c0.1-1.4,1.6-2.7,2.5-4.1c0.7,1.3,2.1,2.6,2.1,3.9c0.2,6,0.1,12,0.1,18c0,1.8,0.2,3.6,0.3,6.5
		c1.7-1.4,2.7-2,3.5-2.9c7.9-7.9,15.8-15.8,23.8-23.5c1.1-1.1,3.3-1,5-1.5c-0.4,1.9-0.1,4.4-1.2,5.5c-6.4,6.8-13.1,13.3-19.7,19.9
		c-1.2,1.2-2.3,2.6-3.5,3.9c0.1,0.5,0.3,1,0.4,1.5c5.6,0,11.1-0.2,16.7,0.1c2.6,0.1,7.2-1.8,7.1,2.8c0,4.4-4.6,2.7-7.2,2.8
		c-7,0.2-13.9,0.1-21.9,0.1c1.2,1.9,1.8,2.9,2.6,3.9c17.7,21.5,27.1,45.8,27,73.9c-0.2,99-0.1,198-0.1,297
		c0,25.5-8.8,47.9-24.1,67.9C1196.5,602,1195.8,603.2,1194,605.8z M1062.4,290.1c1.5,1.9,2.3,3.1,3.2,4.2
		c19.2,23.3,30.2,50,31.8,80.2c0.3,4.9,2.2,6.2,6.8,6.1c15.8-0.2,31.6-0.1,47.4,0c8.7,0,8.9-0.4,8.5-9c-1.2-26.5-8.6-51.4-19.4-75.4
		c-1.9-4.3-4.6-6.2-9.5-6.2c-20.3,0.2-40.6,0.1-60.9,0.1C1067.9,290.1,1065.7,290.1,1062.4,290.1z M1063.4,475.6c3.1,0,4.9,0,6.7,0
		c20.1,0,40.3-0.2,60.4,0.1c5.7,0.1,8.8-1.9,11-7.1c10.8-24.5,17.2-49.9,18.7-76.6c0.3-5.1-0.9-6.5-6.2-6.6
		c-16.6-0.1-33.3,0.1-49.9-0.1c-4.5,0-6.5,1.5-6.8,6.3c-1.7,29.8-12.1,56.4-31.1,79.5C1065.5,472.2,1064.9,473.3,1063.4,475.6z
		 M1051.8,278.9c0-2.6,0-4.4,0-6.2c0-18.3,0-36.7,0-55c0-13.8-0.1-13.6-13-19.1c-22.8-9.7-46.7-14.2-71.3-16.2
		c-4.4-0.4-5.9,1.5-5.9,5.8c0.1,17.2,0.1,34.3,0,51.5c0,4.6,1.8,5.9,6.3,6c21,0.8,40.8,6.2,59,16.8
		C1035.1,267.3,1042.9,273,1051.8,278.9z M857.1,290.4c-0.9-0.3-1.4-0.5-1.9-0.5c-21.8,0.1-43.7,0.3-65.5,0.1
		c-5.2,0-8.1,1.6-10.4,6.4c-11.8,24.7-17.9,50.8-19.7,78c-0.4,5.4,0.5,6.3,6.2,6.3c14.7,0,29.3,0,44,0c14.8,0,11.2,0.9,12.8-12
		c2.8-21.7,8.9-42,21.2-60.2C847.8,302.4,852.4,296.7,857.1,290.4z M1051.4,488.2c-1.2,0.4-1.7,0.5-2.1,0.7
		c-0.6,0.3-1.1,0.7-1.7,1.1c-23,18.9-49.6,28.7-79.1,31.2c-6.6,0.6-6.9,1-6.9,7.6c0,16,0,32,0,48c0,6.7,0.5,7.2,7.1,6.9
		c27.5-1.1,53.5-8.4,78.4-19.8c3.6-1.6,4.7-4.1,4.7-7.9c-0.1-21.1,0-42.3-0.1-63.4C1051.8,491.2,1051.6,489.9,1051.4,488.2z
		 M856.2,475.3c-2.9-3.7-5.3-6.5-7.5-9.6c-16.2-22.4-24.9-47.6-26.8-75.1c-0.2-3.1-1.1-5.1-4.6-5.1c-17.8,0-35.6,0-53.4,0
		c-3.2,0-4.5,1.7-4.3,4.8c0.2,3.3,0.5,6.6,0.8,9.9c2.1,24.3,8.3,47.4,18.7,69.5c2,4.4,4.7,6.1,9.6,6c20.6-0.2,41.3-0.1,61.9-0.1
		C852.1,475.6,853.7,475.5,856.2,475.3z M867.8,278.8c6.7-4.5,12.5-8.7,18.5-12.5c19.4-12,40.4-19.5,63.4-20.6
		c4.8-0.2,6.3-1.9,6.3-6.6c-0.2-15.6-0.1-31.3-0.1-46.9c0-9.4,0-9.5-9.1-9c-25.4,1.5-49.5,7.8-72.5,18.7c-5.1,2.4-6.9,5.9-6.9,11.4
		c0.2,20,0.1,40,0.1,59.9C867.6,274.8,867.7,276.5,867.8,278.8z M867.9,487c-0.2,3.2-0.3,5-0.3,6.8c0,18.7,0.2,37.3-0.1,56
		c-0.2,8.3,3.3,13.5,10.7,16.7c22.9,9.7,46.8,15,71.5,17.2c4.5,0.4,6.3-1,6.3-5.7c-0.2-17.2-0.2-34.3,0-51.5c0-4.2-1.4-5.9-5.7-6.1
		c-26.3-0.8-49.7-9.8-71-24.9C875.8,493,872.4,490.4,867.9,487z M1179.4,158.7c-2.2-0.3-3.5-0.5-4.7-0.5c-37.1,0-74.2,0-111.3-0.1
		c-4.3,0-5.9,1.7-5.9,5.9c0.2,10.6,0.2,21.3,0,32c-0.1,3.8,1.8,5.8,4.8,8c12.7,9,25.3,18.2,37.6,27.8c3.5,2.7,5.2,2.8,8.2-0.2
		c22.4-22.8,44.9-45.5,67.3-68.2C1176.6,162.1,1177.7,160.7,1179.4,158.7z M735.5,602.2c0.4,0.2,0.9,0.4,1.3,0.6
		c3.9-4.1,7.7-8.2,11.6-12.1c19.9-19.8,39.9-39.6,59.9-59.4c1.9-1.9,3.8-3.2,1.3-6.5c-9.8-12.8-19.3-25.8-28.7-39
		c-2.2-3-4.6-4.4-8.3-4.4c-10.2,0.1-20.3,0-30.5,0.1c-6.8,0-6.9,0.1-6.9,7c0,36.3,0,72.6,0,108.9
		C735.3,598.9,735.5,600.5,735.5,602.2z M740.7,158.4c1,1.6,1.4,2.3,1.9,2.9c23.8,23.7,47.7,47.4,71.5,71.2c2.2,2.2,3.5,1.1,5.4-0.3
		c12.5-9.4,25-18.7,37.7-27.8c3.3-2.3,4.7-4.7,4.6-8.6c-0.1-10.3,0-20.6-0.1-31c0-6.5-0.2-6.6-6.8-6.6c-36.1,0-72.3,0-108.4,0
		C745,158.2,743.3,158.3,740.7,158.4z M736.1,163.5c-0.5,1.6-0.7,2-0.7,2.5c0,38.1,0,76.2-0.1,114.3c0,3.3,1.6,4.4,4.6,4.3
		c11.7-0.1,23.3,0.1,34.9-0.2c2-0.1,4.6-1.9,5.8-3.6c8.1-11,15.6-22.4,23.8-33.2c6.5-8.7,6.8-8.4-0.9-16.1
		c-21.1-21.3-42.1-42.6-63.1-64C739.3,166.4,738,165.2,736.1,163.5z M1182.9,601.6c0.4-2.1,0.8-3.4,0.8-4.6c0-36.8,0-73.6,0-110.5
		c0-3.6-1.5-5.2-5.1-5.1c-10.8,0.1-21.7-0.2-32.5,0.2c-2.2,0.1-5.1,1.8-6.5,3.7c-9.5,12.6-18.5,25.6-28.1,38.1
		c-2.7,3.5-2.4,5.3,0.5,8.2c22.3,22,44.3,44.2,66.5,66.4C1179.8,599,1181,600,1182.9,601.6z M1183.5,164.9c-1.4,0.9-2.1,1.1-2.5,1.6
		c-23.4,23.4-46.8,46.9-70.3,70.2c-2.6,2.6-0.9,4.1,0.7,6.2c9.1,12.1,18.3,24.1,26.9,36.5c2.6,3.8,5.2,5.5,9.7,5.4
		c9.3-0.2,18.6-0.1,28-0.1c7.8,0,7.9-0.2,7.9-7.7c0-35.5,0-70.9,0-106.4C1183.7,169,1183.6,167.4,1183.5,164.9z M742.8,605.1
		c1.7,0.4,2.5,0.7,3.2,0.7c37,0,74,0,111,0.1c3.8,0,4.9-1.7,4.9-5.2c-0.1-9.8-0.1-19.7,0-29.5c0-4.5-2.2-7.3-5.7-9.9
		c-11.8-8.4-23.5-16.8-34.9-25.7c-3.9-3-6.2-3.4-9.9,0.4c-21.5,21.9-43.3,43.4-64.9,65.1C745.3,602.1,744.4,603.2,742.8,605.1z
		 M1176.2,605.2c-1.2-1.6-1.7-2.6-2.5-3.3c-22.2-22.3-44.5-44.5-66.6-66.8c-2.7-2.7-4.3-2.1-7,0c-12.6,9.5-25.6,18.4-38.2,28
		c-2.2,1.6-4.1,5-4.2,7.6c-0.5,9.1-0.2,18.3-0.2,27.5c0,7.5,0.3,7.8,7.9,7.8c35.1-0.1,70.2-0.1,105.4-0.2
		C1172.3,605.6,1173.9,605.4,1176.2,605.2z M962.1,376.7c4.5-4.2,7.9-7.2,11.2-10.5c15.7-15.6,31.2-31.3,46.9-46.9
		c2.5-2.4,2-4-0.4-6c-14.6-12.3-31.4-19.9-50.4-22c-7.2-0.8-7.7-0.2-7.8,7c0,24.1,0,48.2,0,72.3
		C961.6,372.2,961.9,373.8,962.1,376.7z M951.9,386.5c-1.6-0.5-2.4-1-3.1-1c-25.6,0-51.3,0-76.9,0c-3.6,0-4.5,2.3-4.1,5.4
		c2.2,19.5,9.3,37,21.9,52.2c2.2,2.6,4,2.9,6.5,0.4c14.1-14.2,28.3-28.2,42.3-42.4C942.9,396.5,947.1,391.7,951.9,386.5z
		 M963.8,390.4c-0.5,0.4-1.1,0.8-1.6,1.1c-0.2,0.6-0.5,1.2-0.5,1.8c0,25.8,0,51.6,0,77.4c0,4,2.3,4.9,6,4.5
		c18.9-2,35.7-9.1,50.7-20.6c4.5-3.4,4.5-3.8,0.5-7.9c-16.8-16.9-33.7-33.7-50.5-50.6C966.6,394.5,965.3,392.4,963.8,390.4z
		 M967.8,385.9c0.8,1.4,1.1,2.1,1.5,2.5c18.3,18.2,36.6,36.4,54.8,54.6c2.5,2.5,4.1,2.4,6.3-0.4c11.5-14.6,18.8-30.9,21.2-49.4
		c0.9-6.6-0.1-7.7-6.7-7.7c-24,0-47.9,0-71.9,0C971.5,385.5,970.1,385.7,967.8,385.9z M967.9,379.9c1.5,0.4,2.1,0.7,2.7,0.7
		c25.5,0,51,0,76.5,0.1c4.3,0,4.9-2.4,4.5-5.9c-2-18.7-9-35.4-20.5-50.2c-2.9-3.7-4.8-3.7-8.2-0.3c-17,17.4-34.3,34.5-51.5,51.7
		C970.4,377,969.5,378.2,967.9,379.9z M952,380.3c-2.3-2.5-3.6-3.9-4.9-5.3c-16.5-16.5-33-33-49.5-49.5c-5.3-5.3-5.5-5.3-10.2,0.6
		c-10.8,13.9-17.2,29.5-19.4,47c-0.9,6.9-0.4,7.6,6.5,7.6c23.8,0,47.6,0,71.5,0C947.5,380.6,949,380.5,952,380.3z M741.6,611.8
		c1.2,1.5,1.6,2.1,2,2.5c16,13.1,34.2,22,54.6,23.9c19.5,1.8,39.2,1,58.9,1.4c3.5,0.1,4.8-1.5,4.7-4.8c-0.1-5.2,0-10.3,0-15.5
		c0-7.7-0.2-7.9-7.8-7.9c-35.3,0-70.6,0-106,0C746.3,611.5,744.5,611.7,741.6,611.8z M1177.3,613.6c-0.2-0.6-0.5-1.2-0.7-1.8
		c-1.9-0.1-3.8-0.3-5.7-0.3c-18,0-36,0-53.9,0c-17.5,0-35,0-52.4,0c-6.1,0-6.9,1-7,7c0,4.8,0,9.7,0,14.5c0,6,0.6,6.7,6.5,6.7
		c12.5,0,25-0.2,37.4,0.1c19.4,0.4,37.7-3.6,54.8-12.7C1163.5,623,1170.3,618.1,1177.3,613.6z M954.2,374.5c0.6-0.4,1.1-0.8,1.7-1.2
		c0-26.1,0-52.3,0-78.4c0-3.5-1.8-4.1-4.8-3.8c-14.1,1.5-27.3,6-39.4,13.4c-5.2,3.1-9.9,7.1-14.4,10.4
		C916.6,335.2,935.4,354.9,954.2,374.5z M1188.5,599.2c0.7,0.4,1.4,0.7,2.1,1.1c0.7-1.1,1.3-2.3,2.1-3.4c7.8-10.3,13.9-21.5,18-33.8
		c8.4-25.4,5.6-51.7,5.9-77.8c0-3-1.8-4-4.6-4c-5.3,0-10.7,0-16,0c-7.2,0-7.5,0.3-7.5,7.7c0,35,0,69.9,0,104.9
		C1188.5,595.7,1188.5,597.4,1188.5,599.2z M1190.4,166.1c-0.6,0.3-1.3,0.5-1.9,0.8c0,2,0,3.9,0,5.9c0,34.3,0,68.6,0,102.9
		c0,1.3,0.1,2.7,0,4c-0.1,3.6,1.6,5.1,5.1,5.1c5.7-0.1,11.3-0.2,17,0c4.6,0.2,6.1-1.8,6.1-6.2c-0.2-14.1,0.3-28.3-0.2-42.4
		c-0.7-18.7-5.1-36.6-14.6-52.9C1198.5,177.3,1194.3,171.8,1190.4,166.1z M955.6,392.7c-1.1,0.5-1.4,0.6-1.7,0.8
		c-18.2,18.1-36.3,36.3-54.5,54.4c-2.3,2.3-1.6,3.9,0.6,5.7c14.4,11.8,30.8,19.1,49.3,21.2c6.5,0.7,6.5,0.6,6.5-5.7c0-24,0-48,0-72
		C955.9,395.7,955.8,394.5,955.6,392.7z M728.8,598.5c0.4-1.9,0.8-3,0.8-4.1c0-35.9,0-71.9,0-107.8c0-3.9-1.7-5.4-5.5-5.3
		c-5,0.1-10,0.3-15,0c-4.8-0.3-6.6,1.7-6.5,6.4c0.3,16.3,0,32.6,0.9,48.9c1.2,21.8,8.9,41.5,22,59
		C726.3,596.5,727.3,597.2,728.8,598.5z M729.3,168.7c-0.4-0.2-0.8-0.4-1.3-0.6c-1.4,1.6-2.9,3.1-4.1,4.8
		c-8.3,11.5-14.3,24-17.6,37.8c-5.4,23-3.4,46.3-3.7,69.6c0,3.1,1.5,4.5,4.6,4.5c4.8-0.1,9.7,0,14.5,0c7.6,0,7.8-0.2,7.8-7.9
		c0-34.3,0-68.6,0-102.9C729.6,172.2,729.4,170.4,729.3,168.7z M1188.5,335.3c0,13.1,0.1,26.3,0,39.4c0,4.2,1.5,6.1,5.8,5.9
		c5.8-0.2,11.6-0.1,17.5,0c3.3,0,4.9-1.3,4.9-4.7c0-26.9,0-53.9,0-80.8c0-3.7-1.8-5-5.3-4.9c-5.3,0.1-10.6,0-16,0
		c-6.4,0-6.9,0.5-6.9,6.8C1188.5,309.7,1188.5,322.5,1188.5,335.3z M1007.1,639.6c13,0,26-0.1,39,0.1c3.9,0,5.9-1,5.8-5.3
		c-0.2-6-0.1-12,0-18c0.1-3.4-1.5-4.9-4.8-4.9c-26.6,0-53.3,0-79.9,0c-3.7,0-5.5,1.8-5.5,5.5c0,5.3-0.1,10.7,0,16
		c0.1,6,0.6,6.6,6.5,6.7C981.2,639.7,994.1,639.7,1007.1,639.6z M1188.5,430.4c0,13.2,0.1,26.3,0,39.5c0,3.9,1.3,5.9,5.5,5.8
		c5.8-0.2,11.7-0.1,17.5,0c3.5,0.1,5.2-1.5,5.2-5c0-26.5,0-53,0-79.5c0-4.1-2.1-5.7-5.9-5.7c-5.5,0-11,0.1-16.5-0.1
		c-4.4-0.2-5.9,1.8-5.8,6C1188.6,404.4,1188.5,417.4,1188.5,430.4z M1174.4,152.2c-13-11.8-27.8-19.4-44.6-22.9
		c-22.4-4.8-45.1-2.3-67.7-2.8c-3.5-0.1-4.7,1.9-4.6,5.1c0.1,4.5,0,9,0,13.5c0,7.2,0.3,7.5,7.7,7.5c34.6,0,69.3,0,103.9,0
		C1170.9,152.5,1172.6,152.3,1174.4,152.2z M745.4,150.9c0.2,0.5,0.3,1,0.5,1.6c1.9,0,3.9,0,5.8,0c21.3,0,42.6,0,63.9,0
		c13.5,0,27-0.1,40.5,0.1c4.3,0,6.1-1.6,5.9-5.9c-0.2-4.3,0-8.7-0.1-13c0-6.8-0.4-7.2-7-7.2c-13.3,0-26.7-0.8-39.9,0.3
		c-12.7,1.1-25.4,3.3-37.7,6.5C765.3,136.3,754.8,143,745.4,150.9z M911.7,639.7c13,0,26-0.1,39,0c3.8,0,5.5-1.3,5.3-5.2
		c-0.2-6-0.1-12,0-18c0-3.3-1.4-5-4.7-5c-26.1,0-52.3,0-78.4,0c-3.8,0-5.3,2-5.3,5.7c0.1,5.5,0.2,11,0,16.5
		c-0.2,4.6,1.7,6.1,6.2,6.1C886.4,639.5,899,639.7,911.7,639.7z M729.6,335.6c0-13.1-0.1-26.3,0.1-39.4c0-4.5-1.6-6.4-6.2-6.2
		c-5.1,0.3-10.3,0.2-15.5,0c-3.5-0.1-5.4,1.2-5.3,4.9c0,27,0,53.9,0,80.9c0,3.3,1.5,4.9,4.8,4.8c5.3-0.1,10.7-0.2,16,0.1
		c4.6,0.2,6.2-1.6,6.2-6.1C729.5,361.6,729.6,348.6,729.6,335.6z M702.7,430.5c0,13,0.1,26,0,39c0,4.3,1.4,6.5,6.1,6.3
		c5-0.3,10-0.2,15,0c4.3,0.2,5.9-1.6,5.9-5.9c-0.1-12,0-24,0-36c0-14-0.1-28,0.1-42c0.1-4.7-1.9-6.7-6.6-6.5c-4.5,0.2-9,0-13.5,0.1
		c-6,0-6.9,0.9-6.9,7C702.6,405.1,702.7,417.8,702.7,430.5z M1007.1,126.4C1007.1,126.4,1007.1,126.4,1007.1,126.4
		c-13,0-26,0.1-38.9,0c-4.7-0.1-6.7,1.8-6.5,6.5c0.2,4.7,0.1,9.3,0,14c0,3.6,1.5,5.6,5.3,5.6c26.6,0,53.2,0,79.9,0
		c3.6,0,5.1-1.6,5-5.2c-0.1-4.8-0.2-9.7,0-14.5c0.3-4.7-1.6-6.5-6.4-6.5C1032.7,126.5,1019.9,126.4,1007.1,126.4z M774.9,290.2
		c-12.7,0-24.5-0.1-36.3,0c-3.4,0-3.3,2.7-3.3,5.1c0,26.7,0,53.3-0.1,80c0,4.2,1.7,5.7,5.7,5.4c2.7-0.2,5.3-0.2,8,0
		c4,0.2,5.8-1.4,5.7-5.5c-0.1-4.7-0.1-9.4,0.4-14c2.7-23,8.3-45.1,18.3-66.1C773.9,293.9,774.1,292.6,774.9,290.2z M774.9,474.9
		c-1.3-3.1-2.3-5.5-3.4-7.9c-9.5-21.9-15.7-44.6-16.8-68.5c-0.6-14.2,2.5-13-14.3-13c-3.5,0-5.2,1.3-5.2,5c0.1,26.8,0.1,53.6,0,80.5
		c0,3.4,1.5,4.7,4.8,4.7c10.2-0.1,20.3,0,30.5,0C771.7,475.6,772.8,475.2,774.9,474.9z M911.6,152.5c12.8,0,25.6-0.1,38.4,0
		c4.2,0,6.1-1.5,5.9-5.8c-0.2-4.8-0.2-9.7,0-14.5c0.2-4.4-1.8-6-6-5.8c-2.3,0.1-4.7,0-7,0c-23.1,0-46.2,0.1-69.4-0.1
		c-4.5,0-6.4,1.5-6.2,6.1c0.2,4.6,0.2,9.3,0,14c-0.2,4.6,1.8,6.2,6.2,6.1C886.3,152.4,899,152.5,911.6,152.5z M1051.4,197.4
		c0.1-2.5,0.3-4.3,0.3-6.1c0-8.5,0-17,0-25.5c0-7.6,0-7.6-7.4-7.6c-23.5,0-47-0.1-70.5,0c-13,0.1-12.3-2.3-12.4,12.8
		c0,4.6,1.6,6.5,6.5,6.5c27.2,0.2,53,6.9,77.8,17.7C1047.5,195.9,1049.2,196.5,1051.4,197.4z M868.2,197.6c1.7-0.4,2.5-0.5,3.2-0.8
		c1.4-0.5,2.8-1.1,4.1-1.7c21.4-9.9,44-15.2,67.3-17.3c13-1.1,12.9-0.9,13-13.9c0-4-1.3-5.7-5.4-5.6c-25.8,0.1-51.6,0.1-77.4,0
		c-4.1,0-5.7,1.7-5.6,5.7c0.1,9.7,0,19.3,0.1,29C867.6,194.2,867.9,195.6,868.2,197.6z M1145.1,290.8c0.7,1.8,1.3,3.3,1.9,4.8
		c10.3,23.3,17.4,47.4,18.5,73c0.6,13.8-1.2,11.7,13.3,12c3.3,0.1,4.9-1.3,4.9-4.7c0-27,0-53.9,0-80.9c0-3.6-1.8-5-5.3-4.9
		c-10,0.1-20,0-29.9,0.1C1147.5,290.2,1146.6,290.5,1145.1,290.8z M1145.4,475.6c11.3,0,21.5,0,31.6,0c6.3,0,6.7-0.5,6.7-6.9
		c0-23.8,0-47.6-0.1-71.4c0-12.7-0.2-12.6-12.9-11.8c-3.2,0.2-4.6,1.3-4.7,4.8c-1.2,26.3-6.1,51.8-16.9,76
		C1148,469,1147,471.7,1145.4,475.6z M1051.7,569.3c-1.5,0.1-2,0-2.4,0.1c-26.4,12.4-54.1,19.4-83.4,19.8c-3,0-4.2,1.6-4.2,4.4
		c0,1.5-0.1,3-0.1,4.5c0,7.4,0.3,7.7,7.5,7.7c22.8,0,45.6,0,68.5,0c3.3,0,6.7,0.3,10-0.2c1.5-0.2,3.9-2,4-3.1
		C1051.8,591.6,1051.7,580.6,1051.7,569.3z M868,568.5c-0.2,2.3-0.5,3.9-0.5,5.5c0,8.3-0.1,16.6,0,24.9c0,6.3,0.6,6.8,6.9,6.8
		c23.6,0,47.2,0,70.8,0c11.1,0,11,0,10.7-11.3c-0.1-3.8-1.4-5.2-5.3-5.3c-25.5-1.1-50-6.6-73.4-16.8
		C874.5,571.1,871.6,570,868,568.5z M1057.8,470.1c0.5,0.2,1,0.3,1.5,0.5c3.1-4.1,6.2-8.1,9.2-12.3c13.9-19.9,21.6-41.9,23.3-66.1
		c0.4-5.9-0.4-6.7-6.3-6.8c-6.8-0.1-13.7,0-20.5,0c-6.9,0-7.4,0.5-7.4,7.4c0,24.2,0,48.3,0,72.5
		C1057.5,466.9,1057.7,468.5,1057.8,470.1z M1059.7,295.7c-0.6,0.3-1.1,0.7-1.7,1c-0.2,0.5-0.5,0.9-0.5,1.4c0,26,0,52-0.1,77.9
		c0,3.5,1.9,4.6,5.1,4.6c7.2-0.1,14.3,0,21.5,0c7.5,0,8.3-0.8,7.6-8.4c-1.8-19.3-7.2-37.6-16.9-54.4
		C1070.3,310.1,1064.8,303.1,1059.7,295.7z M1048,482.2c-2.5-0.5-3.2-0.8-4-0.8c-25.8,0-51.6,0-77.4,0c-3.7,0-5,1.8-5,5.3
		c0.1,7.7,0,15.3,0,23c0,5.5,1.1,6.4,6.6,5.9c22-2.1,42.8-8.2,61.5-20.2C1035.7,491.5,1041.2,487.1,1048,482.2z M861,471
		c0.5-1.4,0.7-1.9,0.7-2.3c0-26.2,0-52.3,0.1-78.5c0-3.9-2.2-4.8-5.4-4.8c-7.3,0-14.7,0-22,0c-6.3,0-7.3,1.2-6.7,7.4
		c1.3,14.5,4.5,28.6,10.3,42.1C843.5,447.9,850.9,459.9,861,471z M861.5,295.6c-1.6,1.4-2.3,1.8-2.9,2.4c-19,22.3-29,48.3-31,77.4
		c-0.3,3.6,1.2,5.2,4.9,5.2c7.5-0.1,15,0,22.5,0c6.6,0,6.8-0.2,6.8-6.7c0-24.1,0-48.3,0-72.4C861.8,299.9,861.7,298.3,861.5,295.6z
		 M1045.4,284.5c0.2-0.4,0.3-0.8,0.5-1.2c-1.2-1.1-2.3-2.2-3.6-3.2c-21.7-17.5-46.6-26.7-74.2-29.1c-4.7-0.4-6.5,0.9-6.5,5.5
		c0.1,7.2,0,14.3,0,21.5c0,6.3,0.6,6.8,6.9,6.8c24.2,0,48.3,0,72.5,0C1042.5,284.7,1043.9,284.5,1045.4,284.5z M872.7,481.8
		c1.7,1.8,2.3,2.7,3.2,3.5c21.7,18.4,47.1,27.6,75.2,30.3c3.4,0.3,4.9-1,4.9-4.5c-0.1-7.7,0-15.3,0-23c0-6.3-0.4-6.7-6.9-6.7
		c-23.6,0-47.3,0-70.9,0C876.7,481.4,875.3,481.6,872.7,481.8z M872.8,283.6c1.3,0.6,1.7,1,2.2,1c25.6,0.1,51.2,0.1,76.8,0.1
		c3,0,4.1-1.5,4.1-4.4c0-8.5,0-17,0-25.4c0-3.2-1.5-4.4-4.7-4.1c-25.8,2.3-49.3,10.5-70.2,26C878.3,278.8,875.8,281.1,872.8,283.6z
		 M1058.1,280.2c1.3-0.8,2.1-1,2.7-1.6c12.2-12.1,24.3-24.3,36.5-36.3c2.4-2.4,1.6-4-0.6-5.7c-11.1-8.4-22.3-16.9-33.4-25.2
		c-1.2-0.9-2.8-1.4-5.1-2.4C1058.1,233.1,1058.1,256.2,1058.1,280.2z M785.8,481.8c8.1,14.4,17.1,26.5,27.3,37.7
		c2.8,3,4.6,2.5,7.3-0.2c10.9-11.2,22.1-22.2,33.1-33.3c1.1-1.1,1.9-2.4,3.3-4.3C832.8,481.8,810,481.8,785.8,481.8z M1063.7,481.8
		c0.9,1.5,1.1,2.2,1.6,2.6c12,12,24,24,35.9,36.1c2.8,2.8,4.5,0.9,6.1-1.1c8.4-11.1,16.7-22.3,24.9-33.6c0.7-0.9,0.9-2.3,1.5-4
		C1110.2,481.8,1087.4,481.8,1063.7,481.8z M1060.2,485.9c-0.7,0.6-1.3,1.2-2,1.8c0,23,0,46.1,0,69.6c1.5-0.6,2.4-0.7,3-1.2
		c11.5-8.4,23-16.9,34.6-25.3c3.3-2.5,2.6-4.6-0.1-7.2c-10.5-10.2-20.8-20.6-31-31.1C1062.8,490.7,1061.7,488.1,1060.2,485.9z
		 M861.5,487c-1.3,0.7-1.9,1-2.3,1.4c-12,12-24,24-36.1,35.9c-2.4,2.4-1.6,4.1,0.5,5.7c11.5,8.7,23.1,17.3,34.7,25.9
		c0.7,0.5,1.8,0.5,3.1,0.9C861.5,533.5,861.5,510.6,861.5,487z M861.4,279.5c0-23.9,0-46.6,0-69.7c-1.4,0.4-2.5,0.4-3.2,1
		c-11.2,8.3-22.4,16.6-33.6,24.9c-3.3,2.5-3.2,4.6-0.2,7.6c11.1,10.8,21.9,21.8,32.9,32.7C858.3,277,859.4,277.9,861.4,279.5z
		 M855.9,284.3c-0.7-1.2-0.9-1.8-1.4-2.2c-11.7-11.8-23.5-23.5-35.2-35.3c-2.5-2.5-4.3-1.8-6.1,0.5c-7.6,9.8-15.3,19.6-22.8,29.5
		c-1.5,2-2.5,4.5-4.2,7.5C809.9,284.3,832.5,284.3,855.9,284.3z M1133.5,284.3c-0.9-2-1.1-3.2-1.8-4c-8.1-11-16.2-21.9-24.3-32.9
		c-2.6-3.5-4.7-2.9-7.6,0c-10.8,11.1-21.8,22-32.7,33c-1,1-1.8,2.2-3.3,4C1087.4,284.3,1110,284.3,1133.5,284.3z M995.3,290.3
		c9.3,6.2,19.5,13,29.7,19.7c0.9,0.6,2.9,0.7,3.5,0.1c6.4-6.1,12.7-12.4,19-18.7c-0.2-0.4-0.4-0.8-0.6-1.1
		C1029.2,290.3,1011.6,290.3,995.3,290.3z M872.7,290.1c-0.1,0.4-0.3,0.8-0.4,1.2c6,6,12.1,11.8,18,17.9c2.4,2.4,3.7,1,5.9-0.4
		c8.6-5.5,17.4-10.8,26.1-16.2c1.1-0.6,2.2-1.1,3.3-1.7c-0.1-0.3-0.1-0.5-0.2-0.8C907.8,290.1,890.3,290.1,872.7,290.1z
		 M868.1,421.7c0,15.5,0,31.7,0,48c0.5,0.3,1,0.6,1.5,0.9c5.8-6.1,11.7-12.1,17.4-18.3c0.6-0.6,0.2-2.9-0.4-3.8
		C880.4,439.4,874.2,430.5,868.1,421.7z M922.2,475.3c-9.2-6.2-18.7-12.7-28.3-18.9c-0.8-0.5-3.1,0.5-4.1,1.4
		c-3.7,3.4-7.2,7-10.7,10.5c-2,2-3.9,4.1-6.6,7C890.3,475.3,906.6,475.3,922.2,475.3z M1045.5,475.2c0.2-0.4,0.4-0.7,0.7-1.1
		c-6-5.9-11.8-11.9-18-17.5c-0.6-0.6-3.2,0.4-4.6,1.3c-7.8,4.8-15.4,9.7-23.1,14.6c-1.2,0.7-2.4,1.4-4.8,2.7
		C1013.3,475.2,1029.4,475.2,1045.5,475.2z M868,345.1c6.3-9.3,12.4-18.2,18.3-27.3c0.6-0.9-0.2-3.5-1.1-4.6c-2.8-3.3-6-6.2-9.1-9.2
		c-2.4-2.4-4.7-4.7-8.1-8.1C868,313.3,868,329.2,868,345.1z M1051.4,296.1c-6,5.9-10.7,10.9-15.8,15.6c-3.4,3.1-2.8,5.5-0.5,8.9
		c4.8,7,9.1,14.3,13.6,21.4c0.7,1,1.3,2.1,2.7,4.3C1051.4,329.2,1051.4,313.5,1051.4,296.1z M1051.5,421.3
		c-5.2,7.9-10,15.8-15.4,23.3c-4.3,6-4.6,5.8,0.9,11.3c3.2,3.2,6.3,6.4,9.5,9.5c1.3,1.3,2.8,2.4,5,4.3
		C1051.5,452.6,1051.5,436.9,1051.5,421.3z"/>
</g>
</svg>
